<?xml version="1.0" encoding="utf-8"?>
<!-- Generator: Adobe Illustrator 19.2.1, SVG Export Plug-In . SVG Version: 6.00 Build 0)  -->
<svg version="1.1" id="Layer_1" xmlns="http://www.w3.org/2000/svg" xmlns:xlink="http://www.w3.org/1999/xlink" x="0px" y="0px"
	 viewBox="0 0 612 792" style="enable-background:new 0 0 612 792;" xml:space="preserve">
<style type="text/css">
	.st0{fill:#FFFFFF;}
	.st1{fill:#282828;}
</style>
<g>
	<path class="st0" d="M136,137.5c-13.6,0-24.7,11.1-24.7,24.7s11.1,24.7,24.7,24.7s24.7-11.1,24.7-24.7S149.7,137.5,136,137.5z"/>
	<path class="st0" d="M136,130.2c-17.7,0-32,14.3-32,32c0,17.7,14.3,32,32,32s32-14.3,32-32C168,144.5,153.7,130.2,136,130.2z
		 M136,188.9c-14.7,0-26.7-12-26.7-26.7c0-14.7,12-26.7,26.7-26.7c14.7,0,26.7,12,26.7,26.7C162.7,176.9,150.8,188.9,136,188.9z"/>
</g>
<path class="st1" d="M136,135.5c-14.7,0-26.7,12-26.7,26.7c0,14.7,12,26.7,26.7,26.7c14.7,0,26.7-12,26.7-26.7
	C162.7,147.5,150.8,135.5,136,135.5z M136,186.9c-13.6,0-24.7-11.1-24.7-24.7s11.1-24.7,24.7-24.7s24.7,11.1,24.7,24.7
	S149.7,186.9,136,186.9z"/>
</svg>
